<?xml version="1.0" encoding="iso-8859-1"?>
<!-- Generator: Adobe Illustrator 19.0.0, SVG Export Plug-In . SVG Version: 6.00 Build 0)  -->
<svg xmlns="http://www.w3.org/2000/svg" xmlns:xlink="http://www.w3.org/1999/xlink" version="1.1" id="Layer_1" x="0px" y="0px" viewBox="0 0 512 512" style="enable-background:new 0 0 512 512;" xml:space="preserve" width="512px" height="512px">
<g>
	<g>
		<path d="M100.757,385.109l-42.667-21.333c-5.248-2.581-11.669-0.491-14.315,4.779l-21.333,42.667    c-2.624,5.269-0.491,11.669,4.779,14.315c1.557,0.768,3.179,1.131,4.779,1.131c3.904,0,7.68-2.155,9.536-5.888l16.555-33.131    l33.131,16.555c5.291,2.603,11.691,0.512,14.315-4.779C108.16,394.155,106.027,387.755,100.757,385.109z" fill="#444444"/>
	</g>
</g>
<g>
	<g>
		<path d="M160.064,469.333c-54.784-0.171-89.813-49.131-96.128-97.387c-0.789-5.867-6.507-10.048-11.968-9.195    c-5.867,0.768-9.963,6.123-9.216,11.968c7.509,57.451,50.197,115.733,117.205,115.947c0.021,0,0.021,0,0.043,0    c5.888,0,10.667-4.779,10.688-10.645C170.709,474.155,165.931,469.355,160.064,469.333z" fill="#444444"/>
	</g>
</g>
<g>
	<g>
		<path d="M484.757,86.379c-5.269-2.56-11.669-0.491-14.315,4.779l-16.555,33.131l-33.131-16.555    c-5.269-2.581-11.669-0.491-14.315,4.779c-2.624,5.269-0.491,11.669,4.779,14.315l42.667,21.333    c1.557,0.768,3.179,1.131,4.779,1.131c3.904,0,7.68-2.155,9.536-5.931l21.333-42.667C492.16,95.424,490.027,89.024,484.757,86.379    z" fill="#444444"/>
	</g>
</g>
<g>
	<g>
		<path d="M469.248,137.237c-7.509-57.451-50.197-115.733-117.205-115.947c-0.021,0-0.021,0-0.043,0    c-5.867,0-10.645,4.779-10.667,10.645c-0.021,5.867,4.757,10.667,10.624,10.688c54.784,0.171,89.813,49.131,96.128,97.387    c0.704,5.376,5.291,9.28,10.56,9.28c0.491,0,0.939-0.021,1.387-0.085C465.899,148.437,469.995,143.083,469.248,137.237z" fill="#444444"/>
	</g>
</g>
<g>
	<g>
		<path d="M341.333,342.016v62.635C365.355,401.6,384,388.48,384,373.333C384,358.165,365.333,345.067,341.333,342.016z" fill="#444444"/>
	</g>
</g>
<g>
	<g>
		<path d="M277.333,288c0,15.168,18.667,28.267,42.667,31.317v-62.635C296,259.733,277.333,272.832,277.333,288z" fill="#444444"/>
	</g>
</g>
<g>
	<g>
		<path d="M330.667,149.333c-99.989,0-181.333,81.344-181.333,181.333S230.677,512,330.667,512S512,430.656,512,330.667    S430.656,149.333,330.667,149.333z M405.333,373.333c0,27.285-27.413,48.96-64,52.587v11.413c0,5.888-4.779,10.667-10.667,10.667    S320,443.221,320,437.333V425.92c-36.587-3.627-64-25.301-64-52.587c0-5.888,4.779-10.667,10.667-10.667    s10.667,4.779,10.667,10.667c0,15.168,18.667,28.267,42.667,31.317v-64.064c-36.587-3.627-64-25.301-64-52.587    s27.413-48.96,64-52.587V224c0-5.888,4.779-10.667,10.667-10.667s10.667,4.779,10.667,10.667v11.413    c36.587,3.627,64,25.301,64,52.587c0,5.888-4.779,10.667-10.667,10.667S384,293.888,384,288c0-15.168-18.667-28.267-42.667-31.317    v64.064C377.941,324.373,405.333,346.048,405.333,373.333z" fill="#444444"/>
	</g>
</g>
<g>
	<g>
		<path d="M170.667,106.667H128v42.667h42.667c11.776,0,21.333-9.579,21.333-21.333C192,116.245,182.443,106.667,170.667,106.667z" fill="#444444"/>
	</g>
</g>
<g>
	<g>
		<path d="M316.885,128.704C302.293,55.424,237.525,0,160,0C71.765,0,0,71.765,0,160c0,77.525,55.403,142.293,128.704,156.885    c1.643-24.149,7.616-47.083,17.003-68.181c-0.981,2.155-2.069,4.267-2.965,6.464c-1.259,0.512-2.624,0.811-4.075,0.811    c-5.888,0-10.667-4.779-10.667-10.667v-10.667h-10.667c-5.888,0-10.667-4.779-10.667-10.667v-128    c0-5.888,4.779-10.667,10.667-10.667H128V74.645c0-5.888,4.779-10.667,10.667-10.667s10.667,4.779,10.667,10.667v10.667h21.333    V74.645c0-5.888,4.779-10.667,10.667-10.667S192,68.757,192,74.645v16.597c12.693,7.403,21.333,21.013,21.333,36.736    c0,12.736-5.611,24.171-14.485,32c3.328,2.944,6.016,6.507,8.299,10.347c-0.917,0.747-1.749,1.579-2.667,2.325    C235.755,147.627,274.496,131.563,316.885,128.704z" fill="#444444"/>
	</g>
</g>
<g>
	<g>
		<path d="M152.235,234.688h-2.901v6.016c-0.512,1.024-0.917,2.091-1.429,3.136c2.048-4.309,4.224-8.555,6.571-12.693    C153.771,232.363,152.896,233.451,152.235,234.688z" fill="#444444"/>
	</g>
</g>
<g>
	<g>
		<path d="M190.507,184.619c-3.029-8.107-10.688-13.952-19.84-13.952H128v42.667h37.717c-0.213,0.299-0.384,0.64-0.597,0.96    c8.64-12.267,18.709-23.381,29.781-33.429C193.472,182.144,191.915,183.296,190.507,184.619z" fill="#444444"/>
	</g>
</g>
<g>
</g>
<g>
</g>
<g>
</g>
<g>
</g>
<g>
</g>
<g>
</g>
<g>
</g>
<g>
</g>
<g>
</g>
<g>
</g>
<g>
</g>
<g>
</g>
<g>
</g>
<g>
</g>
<g>
</g>
</svg>
